<?xml version="1.0" encoding="utf-8"?>
<!-- Generator: Adobe Illustrator 25.0.1, SVG Export Plug-In . SVG Version: 6.00 Build 0)  -->
<svg version="1.1" id="Layer_1" xmlns="http://www.w3.org/2000/svg" xmlns:xlink="http://www.w3.org/1999/xlink" x="0px" y="0px"
	 viewBox="0 0 800 800" style="enable-background:new 0 0 800 800;" xml:space="preserve">
<style type="text/css">
	.st0{fill:#FF0000;}
	.st1{stroke:#FFFFFF;stroke-miterlimit:10;}
</style>
<g>
	<polygon class="st0" points="400.2,261.6 116.8,206.9 400.2,561.2 683.7,206.9 	"/>
	<g>
		<path class="st1" d="M246.8,411.3l-12.6-2.3c-0.3,0-0.5-0.1-0.8-0.1l-90.1-16.1c0,0,35.7,55.1,66.1,60.5c0.5,0.1,1,0.2,1.6,0.3
			l60.2,10.8C271.4,424,259.7,414.6,246.8,411.3z"/>
		<path class="st1" d="M257.2,312.5c0.3-40.3-11.4-49.7-24.3-53l-12.6-2.3c-0.3,0-0.5-0.1-0.8-0.1L0.8,216.3
			c0,0,35.7,55.1,66.1,60.5c0.5,0.1,129.5,25,130,25.1L257.2,312.5z"/>
		<path class="st1" d="M566.3,409l-12.6,2.3c-12.8,3.3-24.7,12.7-24.3,53l60.2-10.8c0.5-0.1,1-0.2,1.6-0.3
			c30.2-5.4,66.1-60.5,66.1-60.5l-90.1,16.1C566.9,408.9,566.5,409,566.3,409z"/>
		<path class="st1" d="M580.9,257.1c-0.3,0-0.5,0.1-0.8,0.1l-12.6,2.3c-12.8,3.3-24.7,12.7-24.3,53l60.2-10.8
			c0.5-0.1,129.5-25,130-25.1c30.2-5.4,66.1-60.5,66.1-60.5L580.9,257.1z"/>
		<path class="st1" d="M525.8,266.6c0,0-44.3,6-52.5,9c-6.3,2.3-23.3,8.4-24.4,26.8c-1.1,18.5-2.8,52.1-2.8,52.1l-45.9,8.5
			l-45.9-8.5c0,0-1.7-33.6-2.8-52.1s-18.1-24.5-24.4-26.8c-8.2-2.9-52.5-9-52.5-9l6.1,73.1L71.3,302.4c0,0,35.7,55.1,66.1,60.5
			c0.6,0.1,1.3,0.2,2,0.3l145.5,25.9l8.7,105.2l81,98.4c0,0-10.6-129.5-12.1-145.4c-1.6-16-16.7-19-31.8-19v-32.1l69.6,14.8
			l69.6-14.8v32.1c-15.1,0-30.2,3.1-31.8,19c-1.6,15.8-12.1,145.4-12.1,145.4l81-98.4l8.7-105.2l145.5-25.9c0.6-0.1,1.2-0.2,2-0.3
			c30.3-5.4,66.1-60.5,66.1-60.5l-209.4,37.3L525.8,266.6z"/>
	</g>
</g>
</svg>
