<?xml version="1.0" encoding="utf-8"?>
<!-- Generator: Adobe Illustrator 21.0.0, SVG Export Plug-In . SVG Version: 6.00 Build 0)  -->
<svg version="1.1" id="Layer_1" xmlns="http://www.w3.org/2000/svg" xmlns:xlink="http://www.w3.org/1999/xlink" x="0px" y="0px" height="800px" width="800px"
	 viewBox="0 0 965.67 965.67" style="enable-background:new 0 0 965.67 965.67;" xml:space="preserve">
<style type="text/css">
	.st0{fill:#37B551;}
</style>
<g>
	<g>
		<g>
			<path id="SVGID_1_" class="st0" d="M518.111,704.53l193.6-162.746v-289.77l-193.6,162.742V704.53 M370.447,647.5V467.682
				L253.959,369.76v179.818L370.447,647.5 M414.487,301.615l57.273-48.148V123.291l-58.651,49.306v127.855L414.487,301.615
				 M460.687,965.67V827.821V388.012l308.448-259.288V568.53L518.111,779.548V916.29L460.687,965.67L460.687,965.67L460.687,965.67z
				 M427.871,874.179l-60.703-50.57V719.761L196.535,576.324V246.47l231.336,194.467v306.582V874.179L427.871,874.179
				L427.871,874.179z M427.871,388.012l-69.87-58.912l-2.321-1.5V145.852L529.184,0v280.215l-101.312,85.164v22.633H427.871
				L427.871,388.012z"/>
		</g>
	</g>
</g>
</svg>
